<svg width="1280" height="720" viewBox="0 0 1280 720" fill="none" xmlns="http://www.w3.org/2000/svg" shape-rendering="crispEdges">
  <defs>
    <pattern id="grass" width="64" height="64" patternUnits="userSpaceOnUse">
      <rect width="64" height="64" fill="#B9C96B"/>
      <rect x="0" y="0" width="32" height="32" fill="#C6D574"/>
      <rect x="32" y="32" width="32" height="32" fill="#AFC05F"/>
      <rect x="12" y="44" width="8" height="8" fill="#8BA34D"/>
      <rect x="46" y="10" width="8" height="8" fill="#8BA34D"/>
    </pattern>
    <pattern id="path" width="64" height="64" patternUnits="userSpaceOnUse">
      <rect width="64" height="64" fill="#C49B55"/>
      <rect x="0" y="0" width="32" height="32" fill="#D3AD66"/>
      <rect x="32" y="32" width="32" height="32" fill="#B88D48"/>
      <rect x="20" y="18" width="8" height="8" fill="#E2C079"/>
      <rect x="44" y="46" width="8" height="8" fill="#9C733A"/>
    </pattern>
    <pattern id="water" width="48" height="48" patternUnits="userSpaceOnUse">
      <rect width="48" height="48" fill="#6EA7B8"/>
      <rect x="0" y="8" width="24" height="8" fill="#8AC2CF"/>
      <rect x="24" y="32" width="24" height="8" fill="#4F879C"/>
    </pattern>
  </defs>
  <rect width="1280" height="720" fill="#B9C96B"/>
  <rect x="0" y="0" width="1280" height="720" fill="#C6D574" opacity="0.34"/>
  <path d="M0 0H1280V720H0V0ZM64 0V720M128 0V720M192 0V720M256 0V720M320 0V720M384 0V720M448 0V720M512 0V720M576 0V720M640 0V720M704 0V720M768 0V720M832 0V720M896 0V720M960 0V720M1024 0V720M1088 0V720M1152 0V720M1216 0V720M0 64H1280M0 128H1280M0 192H1280M0 256H1280M0 320H1280M0 384H1280M0 448H1280M0 512H1280M0 576H1280M0 640H1280" stroke="#9BAD57" stroke-width="2"/>
  <rect x="54" y="44" width="10" height="10" fill="#8BA34D"/>
  <rect x="286" y="94" width="10" height="10" fill="#8BA34D"/>
  <rect x="438" y="290" width="10" height="10" fill="#8BA34D"/>
  <rect x="746" y="238" width="10" height="10" fill="#8BA34D"/>
  <rect x="1078" y="350" width="10" height="10" fill="#8BA34D"/>
  <rect x="0" y="456" width="1280" height="264" fill="#C49B55"/>
  <path d="M0 520H1280M0 616H1280M64 456V720M128 456V720M192 456V720M256 456V720M320 456V720M384 456V720M448 456V720M512 456V720M576 456V720M640 456V720M704 456V720M768 456V720M832 456V720M896 456V720M960 456V720M1024 456V720M1088 456V720M1152 456V720M1216 456V720" stroke="#B18540" stroke-width="2"/>
  <rect x="256" y="392" width="768" height="72" fill="#D9B878"/>
  <rect x="320" y="320" width="640" height="80" fill="#D9B878"/>
  <rect x="568" y="80" width="144" height="640" fill="#D9B878"/>
  <rect x="0" y="520" width="1280" height="32" fill="#B58442"/>
  <rect x="0" y="616" width="1280" height="32" fill="#A87537"/>
  <rect x="112" y="72" width="112" height="112" fill="#FFF2BE"/>
  <rect x="128" y="88" width="80" height="80" fill="#FFE6A3"/>
  <rect x="156" y="116" width="24" height="24" fill="#FFF8D8"/>
  <rect x="960" y="48" width="192" height="96" fill="#6EA7B8"/>
  <rect x="984" y="64" width="64" height="10" fill="#8AC2CF"/>
  <rect x="1056" y="108" width="64" height="10" fill="#4F879C"/>
  <rect x="928" y="144" width="256" height="24" fill="#5A7242"/>
  <rect x="96" y="272" width="288" height="176" fill="#D9B878" opacity="0.32"/>
  <rect x="480" y="80" width="320" height="216" fill="#D9B878" opacity="0.24"/>
  <rect x="896" y="264" width="288" height="184" fill="#D9B878" opacity="0.28"/>
  <rect x="392" y="430" width="496" height="112" fill="#D9B878" opacity="0.36"/>
  <rect x="236" y="204" width="32" height="32" fill="#5E8E4F"/>
  <rect x="220" y="220" width="64" height="32" fill="#6FA35D"/>
  <rect x="1016" y="188" width="40" height="40" fill="#627C48"/>
  <rect x="1000" y="212" width="72" height="32" fill="#789457"/>
  <rect x="672" y="328" width="16" height="16" fill="#FFF2CB"/>
</svg>
