<svg width="1280" height="720" viewBox="0 0 1280 720" fill="none" xmlns="http://www.w3.org/2000/svg">
  <rect width="1280" height="720" fill="#F0E1BE"/>
  <rect y="410" width="1280" height="310" fill="#D3B070"/>
  <ellipse cx="640" cy="392" rx="362" ry="170" fill="#E9D4A3"/>
  <path d="M0 470C149 430 302 440 432 472C557 502 707 505 831 475C961 444 1129 432 1280 470V720H0V470Z" fill="#C79C59"/>
  <path d="M0 515C176 480 331 487 470 522C581 550 708 553 823 528C950 500 1119 487 1280 522V720H0V515Z" fill="#B98A44"/>
  <circle cx="182" cy="103" r="58" fill="#FFF4D9"/>
  <circle cx="1128" cy="138" r="44" fill="#F7E7C1"/>
  <rect x="122" y="282" width="258" height="162" rx="24" fill="#E7C37A" stroke="#7E5B2A" stroke-width="4"/>
  <rect x="900" y="282" width="258" height="162" rx="24" fill="#D8BE84" stroke="#70522A" stroke-width="4"/>
  <rect x="492" y="80" width="296" height="196" rx="28" fill="#D26F4C" stroke="#6E3925" stroke-width="5"/>
  <rect x="388" y="372" width="504" height="212" rx="32" fill="#B58A4B" stroke="#6C5128" stroke-width="4"/>
  <rect x="1010" y="62" width="190" height="146" rx="22" fill="#EBC8B8" stroke="#A94333" stroke-width="4"/>
  <path d="M500 274H780L744 226H536L500 274Z" fill="#8A4330"/>
  <path d="M140 282H380L348 240H172L140 282Z" fill="#315D52"/>
  <path d="M900 282H1158L1123 240H935L900 282Z" fill="#6A5A42"/>
  <path d="M385 584H896" stroke="#77562C" stroke-width="6" stroke-linecap="round"/>
  <circle cx="242" cy="210" r="18" fill="#6E9759"/>
  <circle cx="1030" cy="202" r="20" fill="#7D8E58"/>
  <circle cx="664" cy="322" r="10" fill="#FFF2CB" fill-opacity="0.7"/>
</svg>

