<svg width="560" height="260" viewBox="0 0 560 260" fill="none" xmlns="http://www.w3.org/2000/svg" shape-rendering="crispEdges">
  <rect x="16" y="32" width="528" height="200" fill="#6E542A"/>
  <rect x="32" y="48" width="496" height="168" fill="#B78B49"/>
  <rect x="56" y="72" width="448" height="112" fill="#E5C787"/>
  <rect x="56" y="72" width="448" height="8" fill="#8B6A34"/>
  <rect x="56" y="176" width="448" height="8" fill="#8B6A34"/>
  <rect x="88" y="96" width="88" height="48" fill="#F8EBCB"/>
  <rect x="104" y="112" width="56" height="16" fill="#D0A45C"/>
  <rect x="204" y="96" width="88" height="48" fill="#F8EBCB"/>
  <rect x="220" y="112" width="56" height="16" fill="#D0A45C"/>
  <rect x="320" y="96" width="88" height="48" fill="#F8EBCB"/>
  <rect x="336" y="112" width="56" height="16" fill="#D0A45C"/>
  <rect x="436" y="96" width="52" height="48" fill="#F8EBCB"/>
  <rect x="96" y="168" width="368" height="8" fill="#8A6730"/>
  <rect x="124" y="160" width="16" height="24" fill="#8A6730"/>
  <rect x="214" y="160" width="16" height="24" fill="#8A6730"/>
  <rect x="304" y="160" width="16" height="24" fill="#8A6730"/>
  <rect x="394" y="160" width="16" height="24" fill="#8A6730"/>
</svg>
