<svg width="340" height="220" viewBox="0 0 340 220" fill="none" xmlns="http://www.w3.org/2000/svg" shape-rendering="crispEdges">
  <rect x="32" y="72" width="276" height="124" fill="#8B3E2F"/>
  <rect x="44" y="84" width="252" height="100" fill="#D36A48"/>
  <rect x="20" y="64" width="300" height="28" fill="#6D2F25"/>
  <rect x="52" y="40" width="236" height="24" fill="#8B3E2F"/>
  <rect x="84" y="16" width="172" height="24" fill="#A64A34"/>
  <rect x="68" y="108" width="52" height="60" fill="#F7DC9C"/>
  <rect x="80" y="120" width="28" height="16" fill="#C98652"/>
  <rect x="220" y="108" width="52" height="60" fill="#F7DC9C"/>
  <rect x="232" y="120" width="28" height="16" fill="#C98652"/>
  <rect x="144" y="112" width="52" height="84" fill="#F9E7B8"/>
  <rect x="156" y="128" width="28" height="68" fill="#7B522F"/>
  <rect x="160" y="44" width="20" height="20" fill="#FFF3C6"/>
  <rect x="156" y="40" width="28" height="4" fill="#5C2B22"/>
  <rect x="156" y="64" width="28" height="4" fill="#5C2B22"/>
  <rect x="144" y="52" width="52" height="4" fill="#5C2B22"/>
</svg>
